<svg xmlns="http://www.w3.org/2000/svg" width="35.634" height="50.639" viewBox="0 0 35.634 50.639">
  <defs>
    <style>
      .cls-1 {
        fill: #fff;
      }
    </style>
  </defs>
  <path id="Subtraction_1" data-name="Subtraction 1" class="cls-1" d="M26.28,55.639H8.6a3.045,3.045,0,0,0,.023-.375v-3a3,3,0,0,0-6,0v3a3.045,3.045,0,0,0,.023.375H2a2,2,0,0,1-2-2V7A2,2,0,0,1,2,5h.844a2.982,2.982,0,0,0-.218,1.125v3a3,3,0,0,0,6,0v-3A2.984,2.984,0,0,0,8.409,5H26.475a2.982,2.982,0,0,0-.218,1.125v3a3,3,0,1,0,6,0v-3A2.985,2.985,0,0,0,32.04,5h1.594a2,2,0,0,1,2,2V53.638a2,2,0,0,1-2,2h-1.4a3.046,3.046,0,0,0,.023-.375v-3a3,3,0,1,0-6,0v3a3.047,3.047,0,0,0,.023.375Zm2.977-21.757a3,3,0,0,0-3,3v3a3,3,0,0,0,6,0v-3A3,3,0,0,0,29.257,33.882Zm-23.63,0a3,3,0,0,0-3,3v3a3,3,0,0,0,6,0v-3A3,3,0,0,0,5.627,33.882ZM29.257,18.5a3,3,0,0,0-3,3v3a3,3,0,0,0,6,0v-3A3,3,0,0,0,29.257,18.5Zm-23.63,0a3,3,0,0,0-3,3v3a3,3,0,0,0,6,0v-3A3,3,0,0,0,5.627,18.5Z" transform="translate(0 -5)"/>
</svg>
